<?xml version="1.0" encoding="UTF-8"?>
<svg xmlns="http://www.w3.org/2000/svg" xmlns:xlink="http://www.w3.org/1999/xlink" width="98px" height="26px" viewBox="0 0 98 26">
    
    <title>Logo horizontal White</title>
    <desc>Created with Sketch.</desc>
    <g id="Symbols" stroke="none" stroke-width="1" fill="none" fill-rule="evenodd">
        <g id="Header-Logged-in" transform="translate(-152.000000, -18.000000)" fill="#FFFFFF">
            <g id="Logo-horizontal-White" transform="translate(152.000000, 18.000000)">
                <g id="Logo-horizontal-white">
                    <path d="M46.1098182,7.69025974 C45.8325974,7.69025974 45.6033247,7.78142857 45.422,7.96275325 C45.2403377,8.14475325 45.1495065,8.37368831 45.1495065,8.65023377 L45.1495065,13.2566234 C44.2138442,12.4992468 43.134,12.1214026 41.9092987,12.1214026 C40.482,12.1214026 39.263039,12.6255325 38.2541039,13.6351429 C37.2448312,14.6447532 36.7407013,15.8627013 36.7407013,17.2903377 C36.7407013,18.717974 37.2448312,19.9365974 38.2541039,20.9458701 C39.263039,21.9548052 40.482,22.4589351 41.9092987,22.4589351 C43.3247792,22.4589351 44.5430649,21.9548052 45.5648312,20.9458701 C46.5744416,19.9487532 47.0785714,18.7301299 47.0785714,17.2903377 L47.0785714,8.65023377 C47.0785714,8.37368831 46.9847013,8.14475325 46.7972987,7.96275325 C46.6092208,7.78142857 46.3802857,7.69025974 46.1098182,7.69025974 M44.8955844,18.541039 C44.7260779,18.9317143 44.4954545,19.2751169 44.2033766,19.5702338 C43.9112987,19.8656883 43.5678961,20.0993506 43.1741818,20.2718961 C42.7801299,20.4444416 42.3587273,20.5305455 41.9092987,20.5305455 C41.4541299,20.5305455 41.0296883,20.4444416 40.6356364,20.2718961 C40.2415844,20.0993506 39.8998701,19.8677143 39.6115065,19.574961 C39.3217922,19.2825455 39.0925195,18.9398182 38.9233506,18.5461039 C38.7545195,18.1523896 38.6697662,17.7333506 38.6697662,17.2903377 C38.6697662,16.8473247 38.7545195,16.428961 38.9233506,16.0349091 C39.0925195,15.6415325 39.3217922,15.2977922 39.6115065,15.005039 C39.8998701,14.713974 40.2415844,14.4813247 40.6356364,14.3087792 C41.0296883,14.1369091 41.4541299,14.0501299 41.9092987,14.0501299 C42.3587273,14.0501299 42.7801299,14.1369091 43.1741818,14.3087792 C43.5678961,14.4816623 43.9112987,14.7153247 44.2033766,15.0104416 C44.4954545,15.3058961 44.7260779,15.648961 44.8955844,16.039974 C45.0647532,16.4306494 45.1495065,16.8473247 45.1495065,17.2903377 C45.1495065,17.7333506 45.0647532,18.1507013 44.8955844,18.541039" id="Shape" fill-rule="nonzero"/>
                    <path d="M56.9035325,13.6351429 C55.8821039,12.6255325 54.6634805,12.1214026 53.2483377,12.1214026 C51.8203636,12.1214026 50.6020779,12.6255325 49.5931429,13.6351429 C48.5838701,14.6447532 48.0794026,15.8627013 48.0794026,17.2903377 C48.0794026,18.717974 48.5838701,19.9365974 49.5931429,20.9458701 C50.6020779,21.9548052 51.8207013,22.4589351 53.2483377,22.4589351 C54.6634805,22.4589351 55.8821039,21.9548052 56.9035325,20.9458701 C57.9128052,19.9487532 58.4176104,18.7301299 58.4176104,17.2903377 C58.4108571,16.5768571 58.2835584,15.9153766 58.0343636,15.3058961 C57.7851688,14.6964156 57.4083377,14.1399481 56.9035325,13.6351429 M56.234961,18.541039 C56.0654545,18.9317143 55.8341558,19.2751169 55.5420779,19.5702338 C55.25,19.8656883 54.9065974,20.0993506 54.5132208,20.2718961 C54.1191688,20.4444416 53.6977662,20.5305455 53.2483377,20.5305455 C52.7928312,20.5305455 52.3683896,20.4444416 51.975013,20.2718961 C51.580961,20.0993506 51.2392468,19.8677143 50.9502078,19.574961 C50.6608312,19.2825455 50.4318961,18.9398182 50.2623896,18.5461039 C50.0932208,18.1523896 50.0084675,17.7333506 50.0084675,17.2903377 C50.0084675,16.8473247 50.0932208,16.428961 50.2623896,16.0349091 C50.4318961,15.6415325 50.6608312,15.2977922 50.9502078,15.005039 C51.2392468,14.713974 51.580961,14.4813247 51.975013,14.3087792 C52.3683896,14.1369091 52.7931688,14.0501299 53.2483377,14.0501299 C53.6977662,14.0501299 54.1191688,14.1369091 54.5132208,14.3087792 C54.9065974,14.4816623 55.25,14.7153247 55.5420779,15.0104416 C55.8341558,15.3058961 56.0654545,15.648961 56.234961,16.039974 C56.4037922,16.4306494 56.4882078,16.8473247 56.4882078,17.2903377 C56.4882078,17.7333506 56.4037922,18.1507013 56.234961,18.541039" id="Shape" fill-rule="nonzero"/>
                    <path d="M78.2755325,13.081039 C78.2755325,12.9517143 78.2498701,12.8291429 78.1975325,12.711974 C78.1451948,12.5954805 78.0763117,12.4921558 77.9898701,12.4026753 C77.9030909,12.3138701 77.8017922,12.2446494 77.6852987,12.1946753 C77.5684675,12.1457143 77.4418442,12.1214026 77.3067792,12.1214026 C77.116,12.1214026 76.9437922,12.1707013 76.7901558,12.268961 L71.2703896,15.8596623 L71.2703896,8.65968831 C71.2703896,8.38888312 71.1761818,8.15994805 70.9884416,7.97187013 C70.801039,7.78446753 70.5744675,7.69025974 70.3097403,7.69025974 C70.0385974,7.69025974 69.81,7.78446753 69.6225974,7.97187013 C69.4345195,8.15994805 69.3406494,8.38888312 69.3406494,8.65968831 L69.3406494,21.4901818 C69.3406494,21.7545714 69.4345195,21.9828312 69.6225974,22.1732727 C69.81,22.3637143 70.0385974,22.4592727 70.3097403,22.4592727 C70.5744675,22.4592727 70.801039,22.3640519 70.9884416,22.1732727 C71.1761818,21.9828312 71.2703896,21.7545714 71.2703896,21.4901818 L71.2703896,18.1577922 L72.3964935,17.42 L76.6611688,22.2107532 C76.833039,22.3765455 77.0484675,22.4592727 77.3067792,22.4592727 C77.4418442,22.4592727 77.5684675,22.4352987 77.6852987,22.3856623 C77.8021299,22.3367013 77.9034286,22.2674805 77.9898701,22.178 C78.0763117,22.0891948 78.1451948,21.9858701 78.1975325,21.8687013 C78.2498701,21.7525455 78.2755325,21.6282857 78.2755325,21.4996364 C78.2755325,21.2477403 78.1860519,21.0228571 78.0081039,20.8256623 L74.0388831,16.3583896 L77.9064675,13.8475325 C78.1526234,13.6807273 78.2755325,13.4261299 78.2755325,13.081039" id="Path" fill-rule="nonzero"/>
                    <path d="M62.2615584,14.9965974 C62.5566753,14.7045195 62.9014286,14.4735584 63.2954805,14.3043896 C63.6895325,14.1348831 64.1109351,14.0501299 64.5603636,14.0501299 C64.9662338,14.0501299 65.341039,14.118 65.6864675,14.2534026 C66.0305455,14.3891429 66.3601039,14.5893766 66.6737922,14.8534286 C66.8584935,15.0013247 67.0678442,15.0745974 67.3015065,15.0745974 C67.5783896,15.0745974 67.8073247,14.9827532 67.988987,14.7980519 C68.1703117,14.613013 68.2618182,14.3827273 68.2618182,14.1055065 C68.2618182,13.8168052 68.1507273,13.5736883 67.9292208,13.3764935 C66.9814026,12.5397662 65.8586753,12.1214026 64.5603636,12.1214026 C63.1323896,12.1214026 61.9134286,12.6258701 60.9044935,13.6351429 C59.8955584,14.6447532 59.3910909,15.8627013 59.3910909,17.2903377 C59.3910909,18.717974 59.8955584,19.9365974 60.9044935,20.9458701 C61.9134286,21.9548052 63.1323896,22.4592727 64.5603636,22.4592727 C65.8522597,22.4592727 66.9753247,22.0405714 67.9292208,21.2038442 C68.1324935,21.0002338 68.2337922,20.7642078 68.2337922,20.4930649 C68.2337922,20.2165195 68.1426234,19.9869091 67.9616364,19.8055844 C67.779974,19.6242597 67.5503636,19.5330909 67.2738182,19.5330909 C67.0401558,19.5395065 66.8368831,19.6067013 66.6643377,19.7363636 C66.3570649,20.0007532 66.0302078,20.1996364 65.6864675,20.332 C65.3413766,20.464026 64.9662338,20.5305455 64.5603636,20.5305455 C64.1109351,20.5305455 63.6895325,20.4457922 63.2954805,20.2766234 C62.9014286,20.1074545 62.5566753,19.8764935 62.2615584,19.5844156 C61.9657662,19.2923377 61.7337922,18.9489351 61.5646234,18.5548831 C61.3954545,18.1611688 61.3107013,17.7397662 61.3107013,17.2903377 C61.3107013,16.8415844 61.3954545,16.4195065 61.5646234,16.0254545 C61.7337922,15.6320779 61.9657662,15.2886753 62.2615584,14.9965974" id="Path" fill-rule="nonzero"/>
                    <path d="M97.4493506,12.767013 C97.2768052,12.6012208 97.060026,12.4705455 96.7986753,12.3746494 C96.5373247,12.2797662 96.250987,12.2129091 95.9403377,12.1761039 C95.6293506,12.1392987 95.3382857,12.1214026 95.0678182,12.1214026 C94.4525974,12.1214026 93.8738442,12.2196623 93.3322338,12.4165195 C92.7906234,12.6137143 92.2895325,12.8963377 91.8276104,13.2660779 L91.8276104,13.081039 C91.8276104,12.8166494 91.7340779,12.5904156 91.546,12.4026753 C91.3585974,12.2149351 91.1316883,12.1214026 90.8676364,12.1214026 C90.5964935,12.1214026 90.3678961,12.2149351 90.1798182,12.4026753 C89.9924156,12.5904156 89.8985455,12.8166494 89.8985455,13.081039 L89.8985455,21.4992987 C89.8985455,21.7643636 89.9924156,21.9899221 90.1798182,22.1783377 C90.3678961,22.3660779 90.5964935,22.4596104 90.8676364,22.4596104 C91.1316883,22.4596104 91.3585974,22.3660779 91.546,22.1783377 C91.7340779,21.9899221 91.8276104,21.7643636 91.8276104,21.4992987 L91.8276104,17.2903377 C91.8276104,16.8412468 91.9127013,16.4191688 92.0815325,16.0251169 C92.2503636,15.6317403 92.4816623,15.289013 92.7737403,14.9965974 C93.0661558,14.7041818 93.4092208,14.4735584 93.8032727,14.3043896 C94.1966494,14.1352208 94.6183896,14.0504675 95.0678182,14.0504675 C95.5233247,14.0504675 95.9447273,14.1271169 96.3323636,14.2810909 C96.486,14.348961 96.6214026,14.3823896 96.7385714,14.3823896 C96.8732987,14.3823896 96.9995844,14.3587532 97.1170909,14.3084416 C97.2335844,14.2594805 97.3352208,14.1905974 97.4213247,14.1011169 C97.5074286,14.0123117 97.5766494,13.9093247 97.628987,13.7914805 C97.6813247,13.674987 97.7073247,13.5487013 97.7073247,13.4136364 C97.708,13.1489091 97.6215584,12.9331429 97.4493506,12.767013" id="Path" fill-rule="nonzero"/>
                    <path d="M88.479013,15.3136623 C88.2264416,14.7018182 87.8479221,14.146026 87.3441299,13.6472987 C86.322026,12.638026 85.1034026,12.1335584 83.6885974,12.1335584 C82.2606234,12.1335584 81.042,12.638026 80.0334026,13.6472987 C79.0237922,14.6572468 78.5193247,15.8748571 78.5193247,17.3028312 C78.5193247,18.7304675 79.0237922,19.9490909 80.0334026,20.9583636 C81.042,21.966961 82.260961,22.4714286 83.6885974,22.4714286 C84.9869091,22.4714286 86.113013,22.0534026 87.0672468,21.2163377 C87.0804156,21.2038442 87.102026,21.1845974 87.1050649,21.1812208 C87.1888052,21.1113247 87.2597143,21.0356883 87.3228571,20.9421558 C87.6304675,20.4825974 87.5207273,19.8690649 87.0767013,19.5715844 C86.7029091,19.321039 86.2132987,19.3787792 85.8844156,19.6779481 C85.853013,19.7063117 85.7625195,19.7907273 85.7473247,19.8035584 C85.7425974,19.8072727 85.7385455,19.8106494 85.7338182,19.815039 C85.4478182,20.0554545 85.1381818,20.2361039 84.8055844,20.356987 C84.4665714,20.4802338 84.0951429,20.5416883 83.6885974,20.5416883 C83.331013,20.5416883 82.9886234,20.4863117 82.6587273,20.3752208 C82.3301818,20.2648052 82.0283117,20.1094805 81.7544675,19.9092468 C81.4806234,19.7096883 81.2422338,19.4699481 81.0392987,19.1893506 C80.836026,18.9094286 80.6817143,18.6001299 80.5780519,18.2617922 L87.8884416,18.2617922 C88.1585714,18.2617922 88.3878442,18.170961 88.5755844,17.9892987 C88.7636623,17.807974 88.8578701,17.5783636 88.8578701,17.3018182 C88.8578701,16.589013 88.7312468,15.9261818 88.479013,15.3136623 L88.479013,15.3136623 Z M80.5777143,16.3425195 C80.6756364,16.0045195 80.8269091,15.6955584 81.0298442,15.414961 C81.2331169,15.1353766 81.4728571,14.894961 81.7500779,14.6947273 C82.026961,14.4951688 82.3318701,14.3391688 82.6637922,14.2280779 C82.9957143,14.1183377 83.3374286,14.062961 83.6882597,14.062961 C84.0390909,14.062961 84.3787792,14.1183377 84.708,14.2280779 C85.0375584,14.3391688 85.3390909,14.4951688 85.6125974,14.6947273 C85.8867792,14.894961 86.1268571,15.1353766 86.3328312,15.414961 C86.5394805,15.6955584 86.6944675,16.0045195 86.7994805,16.3425195 L80.5777143,16.3425195 Z" id="Shape" fill-rule="nonzero"/>
                    <path d="M94.1517403,21.0627013 C93.7711948,21.0627013 93.4676364,21.3584935 93.4676364,21.7268831 C93.4676364,22.1037143 93.7711948,22.3991688 94.1517403,22.3991688 C94.5366753,22.3991688 94.8321299,22.1037143 94.8321299,21.7268831 C94.8317922,21.3584935 94.5363377,21.0627013 94.1517403,21.0627013 M94.1554545,22.2573506 C93.8559481,22.2573506 93.6371429,22.0226753 93.6371429,21.7268831 C93.6371429,21.4351429 93.8559481,21.1964156 94.1514026,21.1964156 C94.4471948,21.1964156 94.6616104,21.4351429 94.6616104,21.7309351 C94.6616104,22.0226753 94.4475325,22.2573506 94.1554545,22.2573506" id="Shape" fill-rule="nonzero"/>
                    <path d="M94.6011591,21.9115384 L94.6011591,21.8996982 C94.7395493,21.8646711 94.8368279,21.78179 94.8368279,21.6752286 C94.8368279,21.5805073 94.7881886,21.5025596 94.7262315,21.4616124 C94.6422708,21.4201718 94.5455713,21.3905714 94.3301689,21.3905714 C94.1425603,21.3905714 93.9966426,21.4019182 93.8924156,21.4201718 L93.8924156,22.3905714 L94.1558782,22.3905714 L94.1558782,21.9998462 L94.2815297,21.9998462 C94.4274474,21.9998462 94.4969321,22.0477002 94.5177775,22.1537683 C94.5525198,22.2662498 94.5733652,22.355051 94.6075285,22.3900781 L94.8924156,22.3900781 C94.8640427,22.355051 94.8437763,22.2958502 94.808455,22.1478482 C94.7742917,22.0176065 94.7117555,21.9475522 94.6011591,21.9115384 M94.2884781,21.8409908 L94.1634057,21.8409908 L94.1634057,21.5627471 C94.1911996,21.556827 94.2398389,21.5514002 94.3093235,21.5514002 C94.4760867,21.5514002 94.5525198,21.6101077 94.5525198,21.6994022 C94.5525198,21.7995502 94.4343959,21.8409908 94.2884781,21.8409908" id="Shape" fill-rule="nonzero"/>
                    <path d="M34.9703377,9.85805195 C34.8754545,9.7814026 33.9887532,9.11283117 32.1204675,9.11283117 C31.6531429,9.11283117 31.1601558,9.15537662 30.6479221,9.23945455 C30.286961,6.76067532 28.2407273,5.55319481 28.1455065,5.49849351 L27.6434026,5.20877922 L27.3124935,5.68522078 C27.2878442,5.72067532 26.7060519,6.56685714 26.4210649,7.7712987 C26.0857662,9.18576623 26.2893766,10.5137922 27.0082597,11.6507013 C26.1401299,12.1335584 24.7543636,12.2595065 24.4666753,12.2632208 L1.41716883,12.2632208 C0.815792208,12.2632208 0.324493506,12.7518182 0.32212987,13.3525195 C0.313012987,15.4723636 0.662493506,17.520961 1.33241558,19.2764675 C2.1265974,21.3584935 3.30841558,22.8911429 4.84444156,23.8322078 C6.56685714,24.8870649 9.37114286,25.4921558 12.5374026,25.4921558 C14.0194026,25.4921558 15.4963377,25.3584416 16.8084935,25.1051948 C18.8763377,24.7067532 20.7534026,24.0253506 22.3876883,23.0798961 C23.8132987,22.256 25.0933766,21.2072208 26.1928052,19.9646234 C28.0192208,17.8984675 29.1071688,15.5912208 29.9162078,13.5497143 C30.0249351,13.5541039 30.1326494,13.5564675 30.2383377,13.5564675 C32.237974,13.5564675 33.4674026,12.7572208 34.1464416,12.0866234 C34.8828831,11.3592987 35.1449091,10.6343377 35.1722597,10.553974 L35.3150909,10.1349351 L34.9703377,9.85805195 Z" id="Path" fill-rule="nonzero"/>
                    <path d="M3.55355844,11.5892468 L6.64215584,11.5892468 C6.7914026,11.5892468 6.91262338,11.4683636 6.91262338,11.3187792 L6.91262338,8.56716883 C6.91262338,8.41758442 6.7914026,8.2967013 6.64215584,8.2967013 L3.55355844,8.2967013 C3.40431169,8.2967013 3.28309091,8.41758442 3.28309091,8.56716883 L3.28309091,11.3187792 C3.28309091,11.4683636 3.40431169,11.5892468 3.55355844,11.5892468" id="Path" fill-rule="nonzero"/>
                    <path d="M7.80979221,11.5892468 L10.8980519,11.5892468 C11.0476364,11.5892468 11.1685195,11.4683636 11.1685195,11.3187792 L11.1685195,8.56716883 C11.1685195,8.41758442 11.0476364,8.2967013 10.8980519,8.2967013 L7.80979221,8.2967013 C7.66054545,8.2967013 7.53932468,8.41758442 7.53932468,8.56716883 L7.53932468,11.3187792 C7.53966234,11.4683636 7.66088312,11.5892468 7.80979221,11.5892468" id="Path" fill-rule="nonzero"/>
                    <path d="M12.1318701,11.5892468 L15.2201299,11.5892468 C15.3697143,11.5892468 15.4905974,11.4683636 15.4905974,11.3187792 L15.4905974,8.56716883 C15.4905974,8.41758442 15.3697143,8.2967013 15.2201299,8.2967013 L12.1318701,8.2967013 C11.9826234,8.2967013 11.8614026,8.41758442 11.8614026,8.56716883 L11.8614026,11.3187792 C11.8617403,11.4683636 11.9826234,11.5892468 12.1318701,11.5892468" id="Path" fill-rule="nonzero"/>
                    <path d="M16.4022857,11.5892468 L19.4908831,11.5892468 C19.6404675,11.5892468 19.7613506,11.4683636 19.7613506,11.3187792 L19.7613506,8.56716883 C19.7613506,8.41758442 19.6404675,8.2967013 19.4908831,8.2967013 L16.4022857,8.2967013 C16.2533766,8.2967013 16.1318182,8.41758442 16.1318182,8.56716883 L16.1318182,11.3187792 C16.1318182,11.4683636 16.2533766,11.5892468 16.4022857,11.5892468" id="Path" fill-rule="nonzero"/>
                    <path d="M7.80979221,7.62981818 L10.8980519,7.62981818 C11.0476364,7.62981818 11.1685195,7.50893506 11.1685195,7.35935065 L11.1685195,4.60774026 C11.1685195,4.45815584 11.0476364,4.33727273 10.8980519,4.33727273 L7.80979221,4.33727273 C7.66054545,4.33727273 7.53932468,4.45815584 7.53932468,4.60774026 L7.53932468,7.35935065 C7.53966234,7.50893506 7.66088312,7.62981818 7.80979221,7.62981818" id="Path" fill-rule="nonzero"/>
                    <path d="M12.1318701,7.62981818 L15.2201299,7.62981818 C15.3697143,7.62981818 15.4905974,7.50893506 15.4905974,7.35935065 L15.4905974,4.60774026 C15.4905974,4.45815584 15.3697143,4.33727273 15.2201299,4.33727273 L12.1318701,4.33727273 C11.9826234,4.33727273 11.8614026,4.45815584 11.8614026,4.60774026 L11.8614026,7.35935065 C11.8617403,7.50893506 11.9826234,7.62981818 12.1318701,7.62981818" id="Path" fill-rule="nonzero"/>
                    <path d="M16.4022857,7.62981818 L19.4908831,7.62981818 C19.6404675,7.62981818 19.7613506,7.50893506 19.7613506,7.35935065 L19.7613506,4.60774026 C19.7613506,4.45815584 19.6404675,4.33727273 19.4908831,4.33727273 L16.4022857,4.33727273 C16.2533766,4.33727273 16.1318182,4.45815584 16.1318182,4.60774026 L16.1318182,7.35935065 C16.1318182,7.50893506 16.2533766,7.62981818 16.4022857,7.62981818" id="Path" fill-rule="nonzero"/>
                    <path d="M16.4022857,3.67072727 L19.4908831,3.67072727 C19.6404675,3.67072727 19.7613506,3.54984416 19.7613506,3.40025974 L19.7613506,0.648649351 C19.7613506,0.499064935 19.6404675,0.378181818 19.4908831,0.378181818 L16.4022857,0.378181818 C16.2533766,0.378181818 16.1318182,0.499064935 16.1318182,0.648649351 L16.1318182,3.40025974 C16.1318182,3.54984416 16.2533766,3.67072727 16.4022857,3.67072727" id="Path" fill-rule="nonzero"/>
                    <path d="M20.7105195,11.5892468 L23.7987792,11.5892468 C23.9483636,11.5892468 24.0692468,11.4683636 24.0692468,11.3187792 L24.0692468,8.56716883 C24.0692468,8.41758442 23.9483636,8.2967013 23.7987792,8.2967013 L20.7105195,8.2967013 C20.5612727,8.2967013 20.4400519,8.41758442 20.4400519,8.56716883 L20.4400519,11.3187792 C20.4400519,11.4683636 20.5612727,11.5892468 20.7105195,11.5892468" id="Path" fill-rule="nonzero"/>
                </g>
            </g>
        </g>
    </g>
</svg>
