<svg width="223" height="74" viewBox="0 0 223 74" fill="none" xmlns="http://www.w3.org/2000/svg">
<path d="M63.7641 45.4258V20.6196H69.5895L70.4633 24.309C71.7578 22.885 72.9714 21.8818 74.1041 21.2992C75.2692 20.6843 76.499 20.3769 77.7935 20.3769C78.4084 20.3769 79.0556 20.4254 79.7353 20.5225V27.076C78.8291 26.8818 77.8258 26.7847 76.7255 26.7847C74.6219 26.7847 72.664 27.1569 70.8516 27.9013V45.4258H63.7641ZM88.7292 34.746C88.8587 36.882 89.5059 38.4354 90.671 39.4063C91.8361 40.3448 93.6646 40.8141 96.1565 40.8141C98.3248 40.8141 100.849 40.4095 103.729 39.6005V44.3093C102.597 44.8918 101.238 45.3449 99.6517 45.6685C98.0983 45.9921 96.4802 46.1539 94.7973 46.1539C90.6872 46.1539 87.548 45.0374 85.3797 42.8044C83.2437 40.5713 82.1757 37.3027 82.1757 32.9984C82.1757 28.856 83.2437 25.6359 85.3797 23.3381C87.5156 21.0403 90.4768 19.8914 94.2633 19.8914C97.4672 19.8914 99.9268 20.7814 101.642 22.5614C103.39 24.309 104.263 26.8171 104.263 30.0858C104.263 30.7977 104.215 31.6068 104.118 32.513C104.021 33.4191 103.907 34.1635 103.778 34.746H88.7292ZM94.0206 24.7944C92.4348 24.7944 91.1726 25.2799 90.2341 26.2508C89.3279 27.1893 88.8101 28.5647 88.6807 30.377H98.1954V29.5518C98.1954 26.3802 96.8038 24.7944 94.0206 24.7944ZM113.196 46.0569C111.902 46.0569 110.85 45.6523 110.041 44.8432C109.232 44.0342 108.827 42.9824 108.827 41.6879C108.827 40.3933 109.232 39.3416 110.041 38.5325C110.85 37.7234 111.902 37.3189 113.196 37.3189C114.491 37.3189 115.543 37.7234 116.352 38.5325C117.161 39.3416 117.565 40.3933 117.565 41.6879C117.565 42.9824 117.161 44.0342 116.352 44.8432C115.543 45.6523 114.491 46.0569 113.196 46.0569ZM113.196 28.8236C111.902 28.8236 110.85 28.4191 110.041 27.61C109.232 26.8009 108.827 25.7491 108.827 24.4546C108.827 23.1601 109.232 22.1083 110.041 21.2992C110.85 20.4902 111.902 20.0856 113.196 20.0856C114.491 20.0856 115.543 20.4902 116.352 21.2992C117.161 22.1083 117.565 23.1601 117.565 24.4546C117.565 25.7491 117.161 26.8009 116.352 27.61C115.543 28.4191 114.491 28.8236 113.196 28.8236ZM130.535 30.7168C127.655 29.6489 125.584 28.3543 124.322 26.8333C123.06 25.2799 122.429 23.3219 122.429 20.9594C122.429 17.9173 123.545 15.4901 125.778 13.6778C128.043 11.8654 131.069 10.9593 134.856 10.9593C138.027 10.9593 141.134 11.5418 144.176 12.7069V18.2409C141.037 17.27 138.125 16.7846 135.438 16.7846C131.62 16.7846 129.71 18.0144 129.71 20.474C129.71 21.3801 130.034 22.1245 130.681 22.707C131.361 23.2895 132.607 23.9044 134.419 24.5517L138.011 25.8624C141.021 26.9627 143.157 28.2573 144.419 29.7459C145.714 31.2023 146.361 33.1117 146.361 35.4742C146.361 38.8076 145.163 41.4451 142.769 43.3869C140.374 45.2963 137.089 46.251 132.914 46.251C131.102 46.251 129.289 46.073 127.477 45.717C125.665 45.3934 124.111 44.9403 122.817 44.3578V38.8237C124.435 39.3092 126.166 39.6975 128.011 39.9888C129.856 40.2801 131.522 40.4257 133.011 40.4257C134.921 40.4257 136.393 40.0859 137.429 39.4063C138.464 38.6943 138.982 37.691 138.982 36.3965C138.982 35.3933 138.659 34.6004 138.011 34.0179C137.396 33.4353 136.134 32.7881 134.225 32.0761L130.535 30.7168ZM151.893 45.4258V9.50294H158.932V31.2023L167.524 20.6196H175.971L165.728 32.4644L176.748 45.4258H168.107L158.932 34.1149V45.4258H151.893ZM180.342 45.4258V20.6196H187.429V45.4258H180.342ZM183.885 16.7846C182.656 16.7846 181.668 16.4448 180.924 15.7652C180.18 15.0855 179.808 14.1632 179.808 12.9981C179.808 11.8331 180.18 10.9107 180.924 10.2311C181.668 9.55148 182.656 9.21167 183.885 9.21167C185.115 9.21167 186.102 9.55148 186.847 10.2311C187.591 10.9107 187.963 11.8331 187.963 12.9981C187.963 14.1632 187.591 15.0855 186.847 15.7652C186.102 16.4448 185.115 16.7846 183.885 16.7846ZM205.339 44.9403C203.98 45.4905 202.524 45.7656 200.97 45.7656C196.601 45.7656 194.417 43.3222 194.417 38.4354V9.50294H201.504V37.8529C201.504 38.759 201.65 39.4063 201.941 39.7946C202.265 40.1506 202.783 40.3286 203.495 40.3286C203.948 40.3286 204.563 40.2801 205.339 40.183V44.9403ZM221.126 44.9403C219.766 45.4905 218.31 45.7656 216.757 45.7656C212.388 45.7656 210.203 43.3222 210.203 38.4354V9.50294H217.291V37.8529C217.291 38.759 217.436 39.4063 217.728 39.7946C218.051 40.1506 218.569 40.3286 219.281 40.3286C219.734 40.3286 220.349 40.2801 221.126 40.183V44.9403Z" fill="white"/>
<path d="M95.9496 63V57.3174H97.0592V63H95.9496ZM96.51 56.3086C96.2933 56.3086 96.1214 56.2488 95.9944 56.1293C95.8748 56.0023 95.8151 55.8379 95.8151 55.6361C95.8151 55.4344 95.8748 55.2737 95.9944 55.1542C96.1214 55.0271 96.2933 54.9636 96.51 54.9636C96.7267 54.9636 96.8948 55.0271 97.0144 55.1542C97.1414 55.2737 97.2049 55.4344 97.2049 55.6361C97.2049 55.8379 97.1414 56.0023 97.0144 56.1293C96.8948 56.2488 96.7267 56.3086 96.51 56.3086ZM102.606 63V59.2004C102.606 58.8043 102.524 58.5129 102.359 58.3261C102.203 58.1393 101.952 58.0459 101.608 58.0459C101.018 58.0459 100.439 58.2364 99.8712 58.6175V63H98.7615V57.3174H99.6918L99.8039 57.945C100.514 57.4145 101.261 57.1492 102.046 57.1492C102.591 57.1492 103.006 57.2949 103.29 57.5864C103.574 57.8703 103.716 58.285 103.716 58.8305V63H102.606ZM111.624 63L111.535 62.4172C111.266 62.6488 110.967 62.8281 110.638 62.9552C110.317 63.0822 109.995 63.1457 109.674 63.1457C109.144 63.1457 108.718 62.9963 108.396 62.6974C108.083 62.391 107.926 61.9838 107.926 61.4757C107.926 60.9302 108.12 60.4968 108.508 60.1755C108.897 59.8467 109.42 59.6823 110.078 59.6823C110.511 59.6823 110.982 59.7458 111.49 59.8729V59.1331C111.49 58.7296 111.396 58.4457 111.21 58.2813C111.03 58.1169 110.72 58.0347 110.279 58.0347C109.644 58.0347 108.987 58.1505 108.307 58.3822V57.5976C108.576 57.4556 108.904 57.3473 109.293 57.2725C109.682 57.1903 110.074 57.1492 110.47 57.1492C111.18 57.1492 111.703 57.2987 112.039 57.5976C112.375 57.889 112.543 58.3373 112.543 58.9426V63H111.624ZM109.943 62.3051C110.451 62.3051 110.967 62.1145 111.49 61.7335V60.5902C111.101 60.4931 110.705 60.4445 110.302 60.4445C109.457 60.4445 109.035 60.7695 109.035 61.4196C109.035 61.7036 109.114 61.924 109.271 62.0809C109.428 62.2304 109.652 62.3051 109.943 62.3051ZM116.863 61.4757C116.863 61.2963 116.803 61.1506 116.683 61.0385C116.571 60.9265 116.362 60.8144 116.056 60.7023L115.103 60.3436C114.273 60.0373 113.859 59.5142 113.859 58.7745C113.859 58.2888 114.045 57.8965 114.419 57.5976C114.8 57.2987 115.297 57.1492 115.91 57.1492C116.5 57.1492 117.057 57.2688 117.58 57.5079V58.2925C116.997 58.1057 116.459 58.0123 115.966 58.0123C115.249 58.0123 114.89 58.2551 114.89 58.7408C114.89 58.9351 114.95 59.0883 115.069 59.2004C115.189 59.3125 115.424 59.4357 115.775 59.5702L116.65 59.9065C117.09 60.0784 117.408 60.2838 117.602 60.523C117.797 60.7546 117.894 61.0572 117.894 61.4308C117.894 61.9614 117.696 62.3835 117.3 62.6974C116.904 63.0112 116.377 63.1681 115.719 63.1681C114.98 63.1681 114.337 63.0262 113.791 62.7422V61.9576C114.494 62.1893 115.144 62.3051 115.742 62.3051C116.108 62.3051 116.384 62.2341 116.571 62.0921C116.765 61.9502 116.863 61.7447 116.863 61.4757ZM121.7 61.4757C121.7 61.2963 121.641 61.1506 121.521 61.0385C121.409 60.9265 121.2 60.8144 120.893 60.7023L119.941 60.3436C119.111 60.0373 118.697 59.5142 118.697 58.7745C118.697 58.2888 118.883 57.8965 119.257 57.5976C119.638 57.2987 120.135 57.1492 120.748 57.1492C121.338 57.1492 121.895 57.2688 122.418 57.5079V58.2925C121.835 58.1057 121.297 58.0123 120.804 58.0123C120.086 58.0123 119.728 58.2551 119.728 58.7408C119.728 58.9351 119.788 59.0883 119.907 59.2004C120.027 59.3125 120.262 59.4357 120.613 59.5702L121.488 59.9065C121.928 60.0784 122.246 60.2838 122.44 60.523C122.635 60.7546 122.732 61.0572 122.732 61.4308C122.732 61.9614 122.534 62.3835 122.138 62.6974C121.742 63.0112 121.215 63.1681 120.557 63.1681C119.817 63.1681 119.175 63.0262 118.629 62.7422V61.9576C119.332 62.1893 119.982 62.3051 120.58 62.3051C120.946 62.3051 121.222 62.2341 121.409 62.0921C121.603 61.9502 121.7 61.7447 121.7 61.4757ZM126.292 63.1681C125.44 63.1681 124.775 62.9029 124.297 62.3723C123.819 61.8418 123.579 61.1021 123.579 60.1531C123.579 59.2116 123.819 58.4756 124.297 57.945C124.775 57.4145 125.44 57.1492 126.292 57.1492C127.144 57.1492 127.809 57.4145 128.287 57.945C128.765 58.4756 129.004 59.2116 129.004 60.1531C129.004 61.1021 128.765 61.8418 128.287 62.3723C127.809 62.9029 127.144 63.1681 126.292 63.1681ZM126.292 62.2715C127.345 62.2715 127.872 61.5653 127.872 60.1531C127.872 58.7483 127.345 58.0459 126.292 58.0459C125.238 58.0459 124.712 58.7483 124.712 60.1531C124.712 61.5653 125.238 62.2715 126.292 62.2715ZM134.307 62.787C133.873 63.0112 133.373 63.1233 132.805 63.1233C131.923 63.1233 131.247 62.873 130.776 62.3723C130.313 61.8642 130.081 61.1319 130.081 60.1755C130.081 59.2265 130.32 58.4942 130.799 57.9787C131.284 57.4556 131.968 57.1941 132.85 57.1941C133.35 57.1941 133.821 57.2987 134.262 57.5079V58.3037C133.836 58.1692 133.418 58.1019 133.007 58.1019C132.379 58.1019 131.927 58.2626 131.65 58.5839C131.374 58.8977 131.236 59.4021 131.236 60.097V60.2427C131.236 60.9227 131.374 61.4234 131.65 61.7447C131.934 62.0585 132.379 62.2154 132.984 62.2154C133.388 62.2154 133.829 62.1407 134.307 61.9912V62.787ZM135.584 63V57.3174H136.693V63H135.584ZM136.144 56.3086C135.928 56.3086 135.756 56.2488 135.629 56.1293C135.509 56.0023 135.449 55.8379 135.449 55.6361C135.449 55.4344 135.509 55.2737 135.629 55.1542C135.756 55.0271 135.928 54.9636 136.144 54.9636C136.361 54.9636 136.529 55.0271 136.649 55.1542C136.776 55.2737 136.839 55.4344 136.839 55.6361C136.839 55.8379 136.776 56.0023 136.649 56.1293C136.529 56.2488 136.361 56.3086 136.144 56.3086ZM141.736 63L141.646 62.4172C141.377 62.6488 141.078 62.8281 140.75 62.9552C140.428 63.0822 140.107 63.1457 139.786 63.1457C139.255 63.1457 138.829 62.9963 138.508 62.6974C138.194 62.391 138.037 61.9838 138.037 61.4757C138.037 60.9302 138.231 60.4968 138.62 60.1755C139.008 59.8467 139.532 59.6823 140.189 59.6823C140.622 59.6823 141.093 59.7458 141.601 59.8729V59.1331C141.601 58.7296 141.508 58.4457 141.321 58.2813C141.142 58.1169 140.832 58.0347 140.391 58.0347C139.756 58.0347 139.098 58.1505 138.418 58.3822V57.5976C138.687 57.4556 139.016 57.3473 139.405 57.2725C139.793 57.1903 140.185 57.1492 140.581 57.1492C141.291 57.1492 141.814 57.2987 142.151 57.5976C142.487 57.889 142.655 58.3373 142.655 58.9426V63H141.736ZM140.055 62.3051C140.563 62.3051 141.078 62.1145 141.601 61.7335V60.5902C141.213 60.4931 140.817 60.4445 140.413 60.4445C139.569 60.4445 139.147 60.7695 139.147 61.4196C139.147 61.7036 139.225 61.924 139.382 62.0809C139.539 62.2304 139.763 62.3051 140.055 62.3051ZM147.501 62.8655C147.135 63.0075 146.72 63.0785 146.257 63.0785C145.196 63.0785 144.665 62.5479 144.665 61.4869V58.1916H143.634V57.4743L144.699 57.3398L144.867 55.7258H145.775V57.3174H147.456V58.1916H145.775V61.4308C145.775 61.7073 145.834 61.9016 145.954 62.0137C146.081 62.1257 146.294 62.1818 146.593 62.1818C146.899 62.1818 147.202 62.1444 147.501 62.0697V62.8655ZM148.642 63V57.3174H149.752V63H148.642ZM149.202 56.3086C148.986 56.3086 148.814 56.2488 148.687 56.1293C148.567 56.0023 148.507 55.8379 148.507 55.6361C148.507 55.4344 148.567 55.2737 148.687 55.1542C148.814 55.0271 148.986 54.9636 149.202 54.9636C149.419 54.9636 149.587 55.0271 149.707 55.1542C149.834 55.2737 149.897 55.4344 149.897 55.6361C149.897 55.8379 149.834 56.0023 149.707 56.1293C149.587 56.2488 149.419 56.3086 149.202 56.3086ZM153.875 63.1681C153.023 63.1681 152.358 62.9029 151.88 62.3723C151.402 61.8418 151.163 61.1021 151.163 60.1531C151.163 59.2116 151.402 58.4756 151.88 57.945C152.358 57.4145 153.023 57.1492 153.875 57.1492C154.727 57.1492 155.392 57.4145 155.87 57.945C156.348 58.4756 156.587 59.2116 156.587 60.1531C156.587 61.1021 156.348 61.8418 155.87 62.3723C155.392 62.9029 154.727 63.1681 153.875 63.1681ZM153.875 62.2715C154.929 62.2715 155.455 61.5653 155.455 60.1531C155.455 58.7483 154.929 58.0459 153.875 58.0459C152.821 58.0459 152.295 58.7483 152.295 60.1531C152.295 61.5653 152.821 62.2715 153.875 62.2715ZM161.8 63V59.2004C161.8 58.8043 161.718 58.5129 161.554 58.3261C161.397 58.1393 161.146 58.0459 160.803 58.0459C160.212 58.0459 159.633 58.2364 159.065 58.6175V63H157.956V57.3174H158.886L158.998 57.945C159.708 57.4145 160.455 57.1492 161.24 57.1492C161.785 57.1492 162.2 57.2949 162.484 57.5864C162.768 57.8703 162.91 58.285 162.91 58.8305V63H161.8ZM172.141 63L170.931 58.5503L169.731 63H168.61L166.75 57.3174H167.916L169.193 61.868L170.404 57.3174H171.513L172.724 61.924L174.035 57.3174H175.167L173.262 63H172.141ZM176.137 63V57.3174H177.247V63H176.137ZM176.698 56.3086C176.481 56.3086 176.309 56.2488 176.182 56.1293C176.063 56.0023 176.003 55.8379 176.003 55.6361C176.003 55.4344 176.063 55.2737 176.182 55.1542C176.309 55.0271 176.481 54.9636 176.698 54.9636C176.915 54.9636 177.083 55.0271 177.202 55.1542C177.329 55.2737 177.393 55.4344 177.393 55.6361C177.393 55.8379 177.329 56.0023 177.202 56.1293C177.083 56.2488 176.915 56.3086 176.698 56.3086ZM182.144 62.8655C181.778 63.0075 181.363 63.0785 180.9 63.0785C179.839 63.0785 179.308 62.5479 179.308 61.4869V58.1916H178.277V57.4743L179.342 57.3398L179.51 55.7258H180.418V57.3174H182.099V58.1916H180.418V61.4308C180.418 61.7073 180.478 61.9016 180.597 62.0137C180.724 62.1257 180.937 62.1818 181.236 62.1818C181.542 62.1818 181.845 62.1444 182.144 62.0697V62.8655ZM187.085 63V59.2004C187.085 58.8043 187.002 58.5129 186.838 58.3261C186.681 58.1393 186.431 58.0459 186.087 58.0459C185.497 58.0459 184.918 58.2364 184.35 58.6175V63H183.24V54.7058H184.35V57.9002C185.06 57.3996 185.784 57.1492 186.524 57.1492C187.07 57.1492 187.484 57.2949 187.768 57.5864C188.052 57.8703 188.194 58.285 188.194 58.8305V63H187.085Z" fill="white"/>
<path d="M217.298 59.6943C216.809 59.694 216.33 59.64 215.863 59.5326C215.396 59.4257 215.037 59.3024 214.787 59.163C214.635 59.0776 214.54 58.992 214.502 58.9063C214.464 58.8207 214.445 58.7355 214.445 58.6497L214.446 58.1847C214.446 57.9923 214.517 57.8961 214.658 57.8963C214.712 57.8963 214.769 57.9071 214.829 57.9285C214.889 57.9501 214.967 57.9823 215.065 58.0249C215.38 58.164 215.723 58.2714 216.092 58.3464C216.462 58.4215 216.831 58.4594 217.201 58.4596C217.788 58.4602 218.242 58.3591 218.563 58.1561C218.883 57.9535 219.044 57.6649 219.044 57.2906C219.045 57.034 218.961 56.8202 218.792 56.6491C218.624 56.4779 218.312 56.3173 217.855 56.1672L216.502 55.7491C215.818 55.5348 215.32 55.2246 215.011 54.8179C214.702 54.4116 214.547 53.9676 214.548 53.4866C214.548 53.1019 214.632 52.7626 214.801 52.4685C214.97 52.1748 215.193 51.9238 215.47 51.7155C215.748 51.5074 216.071 51.35 216.441 51.2432C216.81 51.137 217.202 51.0836 217.615 51.084C217.822 51.0842 218.031 51.0978 218.243 51.1245C218.455 51.1516 218.656 51.1866 218.846 51.2292C219.036 51.2724 219.213 51.3205 219.376 51.3741C219.539 51.4279 219.669 51.4814 219.767 51.5346C219.897 51.6098 219.989 51.6848 220.044 51.7594C220.098 51.8344 220.126 51.9359 220.125 52.0642L220.125 52.4971C220.125 52.6895 220.054 52.7857 219.913 52.7857C219.837 52.7855 219.717 52.748 219.554 52.673C219.022 52.4376 218.424 52.3193 217.761 52.3187C217.228 52.3184 216.815 52.4037 216.521 52.5742C216.228 52.7451 216.081 53.0176 216.08 53.3916C216.08 53.6481 216.172 53.8647 216.357 54.0414C216.541 54.2179 216.884 54.3866 217.384 54.5473L218.704 54.9652C219.378 55.1798 219.859 55.4742 220.146 55.8483C220.434 56.223 220.578 56.6506 220.577 57.1315C220.577 57.5271 220.495 57.8827 220.332 58.1977C220.169 58.513 219.943 58.7826 219.654 59.0068C219.366 59.231 219.021 59.402 218.619 59.5192C218.216 59.6362 217.776 59.6947 217.298 59.6943ZM205.33 59.4436C205.167 59.4436 205.047 59.4141 204.971 59.3552C204.895 59.2965 204.83 59.1763 204.775 58.9943L202.597 51.905C202.542 51.7234 202.516 51.6004 202.516 51.5362C202.516 51.3868 202.592 51.3118 202.744 51.3118L203.657 51.3127C203.831 51.3127 203.953 51.3425 204.024 51.4012C204.094 51.46 204.157 51.5805 204.211 51.7621L205.771 57.8245L207.228 51.7647C207.271 51.5831 207.331 51.4629 207.407 51.404C207.483 51.3455 207.609 51.316 207.783 51.3161L208.533 51.3167C208.706 51.3169 208.831 51.3466 208.908 51.4053C208.983 51.4642 209.043 51.5844 209.087 51.7662L210.549 57.9088L212.168 51.7689C212.223 51.5873 212.285 51.4671 212.356 51.4082C212.427 51.3497 212.549 51.3201 212.723 51.3203L213.587 51.3211C213.74 51.3213 213.816 51.3962 213.816 51.5458C213.815 51.5886 213.81 51.6367 213.799 51.6901C213.788 51.7437 213.766 51.8183 213.733 51.9145L211.477 59C211.422 59.1818 211.357 59.302 211.281 59.3605C211.205 59.4192 211.085 59.4486 210.923 59.4484L210.123 59.4478C209.95 59.4476 209.824 59.4154 209.749 59.3512C209.672 59.2871 209.613 59.1642 209.569 58.9822L208.123 53.0803L206.683 58.9799C206.64 59.1617 206.58 59.2844 206.504 59.3486C206.427 59.4126 206.302 59.4446 206.128 59.4444L205.33 59.4436ZM197.846 58.4433C198.15 58.4435 198.471 58.3877 198.808 58.2758C199.145 58.1638 199.439 57.969 199.689 57.6911C199.842 57.5205 199.948 57.3252 200.008 57.1062C200.068 56.8873 200.098 56.6226 200.098 56.3126L200.099 55.9277C199.827 55.8633 199.541 55.8125 199.242 55.7747C198.943 55.7372 198.653 55.7181 198.37 55.7179C197.751 55.7173 197.289 55.8398 196.984 56.0854C196.679 56.3312 196.527 56.6837 196.527 57.1433C196.526 57.571 196.64 57.8946 196.868 58.1137C197.096 58.3331 197.422 58.4429 197.846 58.4433ZM201.63 57.0514C201.63 57.3936 201.665 57.6662 201.736 57.8692C201.806 58.0726 201.906 58.2918 202.037 58.527C202.08 58.6018 202.102 58.6713 202.102 58.7355C202.102 58.8317 202.042 58.9226 201.922 59.008L201.335 59.3921C201.248 59.4455 201.166 59.4722 201.09 59.4722C200.992 59.472 200.9 59.4294 200.813 59.3437C200.683 59.2153 200.571 59.0737 200.479 58.9184C200.387 58.7635 200.292 58.5844 200.194 58.381C199.465 59.2249 198.552 59.6464 197.454 59.6455C196.671 59.6449 196.052 59.4253 195.595 58.9866C195.139 58.5478 194.912 57.9597 194.912 57.222C194.913 56.4419 195.196 55.8141 195.762 55.3388C196.327 54.8637 197.088 54.6263 198.045 54.6271C198.36 54.6274 198.689 54.6519 199.031 54.7001C199.374 54.7484 199.73 54.8156 200.099 54.9014L200.1 54.2279C200.101 53.5332 199.954 53.0441 199.661 52.7605C199.368 52.477 198.862 52.3348 198.145 52.3343C197.819 52.3339 197.485 52.3738 197.142 52.4537C196.8 52.5336 196.465 52.6374 196.139 52.7656C195.987 52.8296 195.878 52.8695 195.813 52.8854C195.748 52.9015 195.699 52.9095 195.666 52.9095C195.536 52.9093 195.47 52.8131 195.47 52.6205L195.471 52.1716C195.471 52.022 195.493 51.915 195.537 51.851C195.58 51.7869 195.667 51.7229 195.797 51.6589C196.124 51.4987 196.515 51.3603 196.972 51.2429C197.429 51.1259 197.912 51.0673 198.423 51.0677C199.532 51.0687 200.344 51.3178 200.86 51.8154C201.376 52.3129 201.634 53.0642 201.633 54.069L201.63 57.0514Z" fill="white"/>
<path fill-rule="evenodd" clip-rule="evenodd" d="M219.056 64.2065C215.986 66.4301 211.537 67.6103 207.707 67.6069C202.34 67.6026 197.508 65.6472 193.853 62.3963C193.566 62.1411 193.823 61.793 194.168 61.9909C198.112 64.2523 202.991 65.6163 208.031 65.6207C211.432 65.6235 215.17 64.9328 218.61 63.5011C219.129 63.2853 219.563 63.838 219.056 64.2065Z" fill="#FF9900"/>
<path fill-rule="evenodd" clip-rule="evenodd" d="M220.334 62.7741C219.941 62.2799 217.74 62.5378 216.751 62.6534C216.451 62.6887 216.405 62.431 216.675 62.2448C218.433 61.0336 221.309 61.3861 221.644 61.7925C221.98 62.2022 221.552 65.039 219.905 66.3913C219.652 66.5992 219.412 66.4879 219.524 66.2132C219.895 65.3041 220.726 63.2686 220.334 62.7741Z" fill="#FF9900"/>
<path fill-rule="evenodd" clip-rule="evenodd" d="M39.0508 0.0917969C39.8206 0.0917969 40.3018 0.925129 39.9169 1.5918L28.7799 20.8815C28.395 21.5482 27.4328 21.5482 27.0479 20.8815L15.9109 1.5918C15.526 0.92513 16.0072 0.0917969 16.777 0.0917969H39.0508Z" fill="#EC7211"/>
<path fill-rule="evenodd" clip-rule="evenodd" d="M2.17443 23.2482C1.40463 23.2482 0.923507 22.4149 1.30841 21.7482L12.4453 2.4585C12.8302 1.79183 13.7925 1.79183 14.1774 2.4585L25.3143 21.7482C25.6992 22.4149 25.2181 23.2482 24.4483 23.2482H2.17443Z" fill="#EC7211"/>
<path fill-rule="evenodd" clip-rule="evenodd" d="M39.0508 50.5361C39.8206 50.5361 40.3018 51.3695 39.9169 52.0361L28.7799 71.3259C28.395 71.9925 27.4328 71.9925 27.0479 71.3259L15.9109 52.0361C15.526 51.3695 16.0072 50.5361 16.777 50.5361H39.0508Z" fill="white"/>
<path fill-rule="evenodd" clip-rule="evenodd" d="M2.17443 73.6935C1.40463 73.6935 0.923507 72.8602 1.30841 72.1935L12.4453 52.9038C12.8302 52.2371 13.7925 52.2371 14.1774 52.9038L25.3143 72.1935C25.6992 72.8602 25.2181 73.6935 24.4483 73.6935H2.17443Z" fill="white"/>
<path fill-rule="evenodd" clip-rule="evenodd" d="M39.0508 48.4704C39.8206 48.4704 40.3018 47.6371 39.9169 46.9704L28.7799 27.6807C28.395 27.014 27.4328 27.014 27.0479 27.6807L15.9109 46.9704C15.526 47.6371 16.0072 48.4704 16.777 48.4704H39.0508Z" fill="white"/>
<path fill-rule="evenodd" clip-rule="evenodd" d="M2.17443 25.314C1.40463 25.314 0.923507 26.1473 1.30841 26.814L12.4453 46.1037C12.8302 46.7704 13.7925 46.7704 14.1774 46.1037L25.3143 26.814C25.6992 26.1473 25.2181 25.314 24.4483 25.314H2.17443Z" fill="#EC7211"/>
</svg>
